<svg width="160" height="90" viewBox="-10 -10 220 220" xmlns="http://www.w3.org/2000/svg" fill="#ddd">
	<path d="M99.806 0C44.912 0 0 44.912 0 99.806s44.912 99.806 99.806 99.806S199.612 154.7 199.612 99.806 154.698 0 99.806 0m0 6.656c24.58 0 47.018 9.654 63.708 25.354l-25.47 25.264 -7.298 -18.678c-0.332 -0.998 -1.664 -1.996 -2.994 -1.996H72.526q-2 -0.002 -2.994 1.996l-8.32 21.29H42.25a11.93 11.93 0 0 0 -11.978 11.978v65.87A11.93 11.93 0 0 0 42.25 149.708h2.596L31.49 162.956c-15.394 -16.632 -24.834 -38.842 -24.834 -63.15 0 -51.232 41.918 -93.15 93.15 -93.15m23.286 93.15c0 12.974 -10.312 23.286 -23.286 23.286 -5.286 0 -10.132 -1.712 -14.02 -4.62l32.798 -32.53a23.3 23.3 0 0 1 4.506 13.862m-46.574 0c0 -12.974 10.312 -23.286 23.286 -23.286 5.33 0 10.202 1.74 14.106 4.688l-32.818 32.552a23.28 23.28 0 0 1 -4.574 -13.952m42.144 -23.314a29.86 29.86 0 0 0 -18.856 -6.628 29.82 29.82 0 0 0 -29.942 29.942c0 7.084 2.42 13.558 6.476 18.668l-24.786 24.58H41.918a5.252 5.252 0 0 1 -5.322 -5.322V71.86a5.252 5.252 0 0 1 5.322 -5.322h21.29c1.332 0 2.662 -0.998 2.994 -1.996l8.32 -21.296h50.564l7.568 19.368zm-37.626 46.694a29.86 29.86 0 0 0 18.772 6.56 29.82 29.82 0 0 0 29.942 -29.942c0 -7.044 -2.394 -13.484 -6.408 -18.58l14.81 -14.686h19.214a5.252 5.252 0 0 1 5.322 5.322v65.87a5.252 5.252 0 0 1 -5.322 5.322H61zm18.772 69.77c-24.542 0 -46.948 -9.622 -63.628 -25.278l18.116 -17.97h103.4c6.656 0 11.978 -5.322 12.308 -11.978V71.86a11.925 11.925 0 0 0 -11.978 -11.978h-13.166l23.342 -23.15c15.346 16.624 24.758 38.804 24.758 63.074 0 51.232 -41.918 93.15 -93.15 93.15"/>
	<path d="M149.708 73.188c-3.662 0 -6.656 2.994 -6.656 6.656S146.046 86.5 149.708 86.5s6.656 -2.994 6.656 -6.656 -2.994 -6.656 -6.656 -6.656"/>
</svg>
